<svg width="304" height="40" viewBox="0 0 304 40" fill="none" xmlns="http://www.w3.org/2000/svg">
<path d="M200.954 14.9139C203.168 14.9139 205.003 15.6737 206.471 17.1934C207.939 18.7131 208.673 20.695 208.673 23.1328C208.673 25.7416 207.85 27.8565 206.205 29.4901C204.56 31.1238 202.497 31.9406 200.017 31.9406C197.455 31.9406 195.335 31.0541 193.665 29.2875C191.994 27.5209 191.14 24.9311 191.121 21.5182C191.121 19.1373 191.362 17.0984 191.849 15.3888C192.336 13.6792 192.988 12.3115 193.804 11.2794C194.62 10.2472 195.708 9.43042 197.062 8.82888C198.416 8.22734 199.821 7.82843 201.276 7.61947C202.732 7.41052 204.484 7.3092 206.534 7.3092V10.6272C204.883 10.6272 203.484 10.6905 202.346 10.8108C201.207 10.9374 200.15 11.159 199.169 11.4756C198.189 11.7986 197.404 12.2481 196.816 12.8434C196.227 13.4322 195.753 14.1857 195.392 15.1102C195.031 16.0283 194.797 17.1554 194.696 18.4788C195.297 17.3391 196.158 16.4652 197.284 15.8447C198.41 15.2242 199.631 14.9139 200.954 14.9139ZM196.132 27.3752C197.113 28.401 198.359 28.9139 199.865 28.9139C201.371 28.9139 202.637 28.401 203.649 27.3752C204.661 26.3495 205.168 25.0007 205.168 23.3291C205.168 21.7145 204.68 20.4101 203.712 19.4223C202.738 18.4282 201.523 17.9343 200.055 17.9343C198.568 17.9343 197.296 18.4345 196.24 19.4413C195.183 20.4417 194.658 21.7398 194.658 23.3354C194.664 25.0007 195.152 26.3495 196.132 27.3752Z" fill="black"/>
<path d="M220.823 14.1401C223.075 14.1401 224.948 14.9759 226.435 16.6539C227.922 18.3318 228.668 20.4594 228.668 23.0428C228.668 25.6516 227.928 27.7855 226.454 29.4508C224.973 31.1161 223.088 31.9456 220.797 31.9456C218.216 31.9456 216.229 30.8692 214.843 28.7163V39.3287H211.332V14.5073H214.837V17.4264C216.223 15.2355 218.216 14.1401 220.823 14.1401ZM220.044 28.596C221.531 28.596 222.752 28.0768 223.702 27.0446C224.651 26.0125 225.125 24.6765 225.125 23.0428C225.125 21.4092 224.651 20.0731 223.702 19.041C222.752 18.0089 221.531 17.4897 220.044 17.4897C218.532 17.4897 217.286 18.0152 216.292 19.0537C215.299 20.0985 214.805 21.4282 214.805 23.0428C214.805 24.6765 215.299 26.0125 216.292 27.0446C217.286 28.0768 218.538 28.596 220.044 28.596Z" fill="black"/>
<path d="M239.424 14.1401C241.905 14.1401 243.999 14.9886 245.701 16.6855C247.409 18.3825 248.257 20.5037 248.257 23.0428C248.257 25.5883 247.409 27.7095 245.714 29.4001C244.018 31.0971 241.917 31.9456 239.418 31.9456C236.938 31.9456 234.843 31.0908 233.141 29.3875C231.439 27.6842 230.585 25.5693 230.585 23.0428C230.585 20.4974 231.439 18.3762 233.16 16.6855C234.875 14.9886 236.963 14.1401 239.424 14.1401ZM243.189 19.0537C242.164 18.0089 240.911 17.4897 239.424 17.4897C237.937 17.4897 236.678 18.0152 235.66 19.0537C234.635 20.0985 234.122 21.4282 234.122 23.0428C234.122 24.6765 234.628 26.0125 235.641 27.0446C236.653 28.0768 237.912 28.596 239.424 28.596C240.93 28.596 242.196 28.0768 243.208 27.0446C244.22 26.0125 244.727 24.6765 244.727 23.0428C244.727 21.4282 244.214 20.0985 243.189 19.0537Z" fill="black"/>
<path d="M266.963 31.5727L262.439 31.5727L254.41 23.6894V31.5727H250.905V14.5081H254.41V21.8911L261.787 14.5081H266.28L257.94 22.6067L266.963 31.5727Z" fill="black"/>
<path d="M275.462 14.1401C278.17 14.1401 280.322 15.0772 281.929 16.9451C283.53 18.8194 284.251 21.1686 284.086 24.0053H270.23C270.375 25.5376 270.932 26.728 271.906 27.5892C272.881 28.4503 274.096 28.8746 275.564 28.8746C276.595 28.8746 277.519 28.6593 278.322 28.2224C279.126 27.7855 279.727 27.1586 280.119 26.3291H283.745C283.106 28.1717 282.049 29.5648 280.581 30.5209C279.113 31.4707 277.43 31.9456 275.526 31.9456C272.944 31.9456 270.818 31.1161 269.154 29.4508C267.49 27.7855 266.661 25.6579 266.661 23.0745C266.661 20.491 267.49 18.3508 269.141 16.6665C270.793 14.9822 272.9 14.1401 275.462 14.1401ZM275.462 17.1794C274.159 17.1794 273.071 17.5467 272.191 18.2812C271.312 19.0157 270.717 19.9718 270.407 21.1496H280.328C280.056 19.9528 279.493 18.9904 278.639 18.2622C277.784 17.5403 276.728 17.1794 275.462 17.1794Z" fill="black"/>
<path d="M296.154 14.1401C298.407 14.1401 300.28 14.9759 301.767 16.6539C303.254 18.3318 304 20.4594 304 23.0428C304 25.6516 303.26 27.7855 301.786 29.4508C300.305 31.1161 298.42 31.9456 296.129 31.9456C293.548 31.9456 291.561 30.8692 290.175 28.7163V39.3287H286.67V14.5073H290.175V17.4264C291.555 15.2355 293.548 14.1401 296.154 14.1401ZM295.383 28.596C296.869 28.596 298.091 28.0768 299.04 27.0446C299.989 26.0125 300.463 24.6765 300.463 23.0428C300.463 21.4092 299.989 20.0731 299.04 19.041C298.091 18.0089 296.869 17.4897 295.383 17.4897C293.87 17.4897 292.624 18.0152 291.63 19.0537C290.637 20.0921 290.144 21.4282 290.144 23.0428C290.144 24.6765 290.637 26.0125 291.63 27.0446C292.618 28.0768 293.87 28.596 295.383 28.596Z" fill="black"/>
<path d="M85.5557 6.2619V31.5771L102.861 31.5771C106.499 31.5771 109.447 28.6264 109.447 24.9856V6.2619L85.5557 6.2619Z" fill="#0AE15F"/>
<path d="M35.9197 35.2248L31.7311 35.2248L29.8898 31.5839L5.42876 31.5839C2.42966 31.5776 0 29.1461 0 26.1511L0 0L7.75718 0L7.75718 23.3777C7.75718 24.1502 8.38358 24.7707 9.14917 24.7707L24.3282 24.7707L24.3282 0L32.0854 0V24.7707H35.9134L35.9134 35.2248H35.9197Z" fill="black"/>
<path d="M40.1099 31.5776V0L47.867 0V20.7879L65.9946 0L73.3721 0V31.5776H65.6149V10.8403L47.4431 31.5776H40.1099Z" fill="black"/>
<path d="M145.317 14.5382C145.317 19.2239 142.477 21.3071 138.554 21.3071L122.09 21.3071V31.5839H114.333V0L138.554 0C142.907 0 145.317 2.41248 145.317 6.76888V14.5382ZM137.56 8.80778C137.56 7.4844 137.181 6.81954 135.713 6.81954L122.09 6.81954V14.4876L135.713 14.4876C137.035 14.4876 137.56 13.8734 137.56 12.7336V8.80778Z" fill="black"/>
<path d="M173.404 31.5776L170.658 26.1321L153.486 26.1321L150.74 31.5776H142.458L158.883 0L165.742 0L181.876 31.5776H173.404ZM162.053 7.85798L156.283 19.6038L167.779 19.6038L162.053 7.85798Z" fill="black"/>
<path d="M87.8777 6.81954L109.454 6.81954V0L84.4547 0C81.0886 0 78.3616 2.72908 78.3616 6.09769V31.5776H86.1188V21.3008L100.121 21.3008V14.4876L86.1124 14.4876V8.57983C86.1124 7.6047 86.9033 6.81954 87.8777 6.81954Z" fill="black"/>
</svg>
